<svg xmlns="http://www.w3.org/2000/svg" fill="none" viewBox="5.69 1.67 226.65 124.46">
<path d="M44.045 3.07357C44.3364 2.13585 45.6636 2.13586 45.955 3.07357L83.5683 124.132C83.7682 124.776 83.2872 125.429 82.6133 125.429H7.38671C6.71276 125.429 6.23178 124.776 6.43175 124.132L44.045 3.07357Z" stroke="black" stroke-width="1.4"/>
<path d="M21.8284 74.5522L21.8284 33.5821H34.5896L21.8284 74.5522Z" stroke="black" stroke-width="1.4"/>
<circle cx="45.1679" cy="56.2499" r="14.2724" stroke="black" stroke-width="1.4"/>
<path d="M28.3686 29.5547L29.2655 28.2765C31.4634 25.1444 31.4305 20.9624 29.1835 17.8653V17.8653C27.5145 15.5647 27.0356 12.6089 27.8929 9.899L28.3686 8.39531" stroke="black" stroke-width="1.4"/>
<path d="M45.3358 41.9775V70.5223" stroke="black" stroke-width="1.4"/>
<line x1="30.8955" y1="56.7258" x2="59.4403" y2="56.7258" stroke="black" stroke-width="1.4"/>
<path d="M146.744 94.128L124.665 41.136C124.451 40.6667 124.259 40.2187 124.089 39.792C123.961 39.3653 123.811 38.9173 123.64 38.448C123.47 38.9173 123.299 39.3653 123.128 39.792C123 40.2187 122.83 40.6667 122.617 41.136L100.536 94.128H146.744ZM161.657 126H160.505C160.121 126 159.865 125.787 159.737 125.36L147.257 95.408H100.024L87.5445 125.36C87.4165 125.787 87.1178 126 86.6485 126H85.6245L123 36.4H124.28L161.657 126ZM232.34 126H230.932C230.591 126 230.335 125.893 230.164 125.68C230.036 125.424 229.908 125.232 229.78 125.104L197.716 80.816C197.631 80.944 197.546 81.072 197.46 81.2C197.418 81.328 197.311 81.4987 197.14 81.712L165.524 125.104C165.311 125.317 165.119 125.531 164.948 125.744C164.82 125.915 164.628 126 164.372 126H162.964L196.692 80.112L164.5 36.4H165.908C166.25 36.4 166.484 36.528 166.612 36.784C166.783 36.9973 166.932 37.168 167.06 37.296L197.716 79.344C197.802 79.1733 197.887 79.024 197.972 78.896C198.058 78.768 198.164 78.5973 198.292 78.384L228.244 37.296C228.373 37.0827 228.522 36.8907 228.692 36.72C228.906 36.5067 229.14 36.4 229.396 36.4H230.804L198.74 79.984L232.34 126Z" fill="black"/>
</svg>