<svg width="90" height="168" fill="none" xmlns="http://www.w3.org/2000/svg"><path d="M44.325 1.852c-.248.111-.539.31-.649.441-.109.132-2.312 7.044-4.896 15.361l-4.698 15.121-6.466.039-6.466.039v41.546l-7.663 24.638c-4.214 13.551-7.698 24.88-7.741 25.176-.1.682.259 1.404.849 1.709.39.202 4.764.228 38.405.228s38.015-.026 38.405-.228c.591-.305.949-1.027.849-1.709-.077-.521-37.455-120.955-37.746-121.618-.311-.71-1.417-1.087-2.183-.743m19.759 61.935c13.565 43.66 18.797 60.69 18.685 60.825-.23.277-75.309.276-75.539-.001-.113-.136 1.994-7.101 7.612-25.162 11.667-37.51 20.155-64.827 25.297-81.412C43.788 6.269 44.807 3.15 45 3.15c.194 0 4.1 12.411 19.084 60.637M27.225 9.713c-.313 1.102-.416 1.795-.418 2.812-.004 2.17.447 3.512 2.135 6.36 1.723 2.904 1.609 6.037-.33 9.059l-.769 1.199.441.353c.243.194.519.353.614.353.282.001 1.726-2.382 2.106-3.475.911-2.617.681-5.602-.601-7.819l-1.052-1.814c-1.158-1.997-1.434-4.081-.835-6.33.517-1.94.518-1.802-.025-1.992-.267-.093-.568-.169-.668-.169-.102 0-.365.644-.598 1.463m6.222 25.049c-.075.227-2.541 8.142-5.479 17.588-2.939 9.446-5.371 17.203-5.406 17.237-.034.035-.062-7.88-.062-17.587V34.35h11.084l-.137.412m10.005 6.645c-6.35.709-11.565 5.467-12.943 11.809-.336 1.547-.336 4.521 0 6.068 1.223 5.626 5.397 9.986 10.977 11.464 1.276.339 1.8.396 3.664.399 1.889.003 2.372-.049 3.675-.397 5.03-1.342 8.861-4.901 10.526-9.775 2.552-7.474-1.373-15.799-8.801-18.665-2.108-.813-4.82-1.158-7.098-.903m1.098 8.018V56.1H31.606l.09-1.162c.395-5.078 4.031-9.714 8.999-11.472 1.245-.44 2.319-.668 3.292-.698l.563-.018v6.675m2.979-6.518c4.225.686 8.024 3.624 9.912 7.666.73 1.565 1.039 2.706 1.159 4.289l.095 1.238H46.05v-6.675c0-6.258.016-6.675.263-6.674.144.001.691.071 1.216.156M44.55 63.6v6.15l-.563-.003c-1.257-.005-3.402-.62-5.028-1.441-3.772-1.906-6.605-5.883-7.224-10.144l-.103-.712H44.55v6.15m14.032-5.438c-.406 2.826-1.816 5.632-3.852 7.668-2.087 2.088-5.009 3.53-7.817 3.86l-.863.101V57.45h12.634l-.102.712" fill-rule="evenodd" fill="#000"/></svg>