<svg width="33" height="30" viewBox="0 0 33 30" fill="none" xmlns="http://www.w3.org/2000/svg">
<path d="M28.4698 19.2442H8.7383L6.1167 4.21411H32.195L28.4698 19.2442Z" stroke="#011638" stroke-width="1.3" stroke-miterlimit="10" stroke-linecap="round" stroke-linejoin="round"/>
<path d="M8.73881 19.2437L4.18555 24.1288" stroke="#011638" stroke-width="1.3" stroke-miterlimit="10" stroke-linecap="round" stroke-linejoin="round"/>
<path d="M4.18555 24.1289H32.3337" stroke="#011638" stroke-width="1.3" stroke-miterlimit="10" stroke-linecap="round" stroke-linejoin="round"/>
<path d="M6.11672 4.21234L3.80542 0.699707" stroke="#011638" stroke-width="1.3" stroke-miterlimit="10" stroke-linecap="round" stroke-linejoin="round"/>
<path d="M3.8057 0.699707H0.666748" stroke="#011638" stroke-width="1.3" stroke-miterlimit="10" stroke-linecap="round" stroke-linejoin="round"/>
<path d="M8.97164 29.0657C10.3579 29.0657 11.4816 27.9606 11.4816 26.5974C11.4816 25.2341 10.3579 24.1289 8.97164 24.1289C7.58542 24.1289 6.46167 25.2341 6.46167 26.5974C6.46167 27.9606 7.58542 29.0657 8.97164 29.0657Z" stroke="#011638" stroke-width="1.3" stroke-miterlimit="10" stroke-linecap="round" stroke-linejoin="round"/>
<path d="M27.1855 29.0657C28.5717 29.0657 29.6954 27.9606 29.6954 26.5974C29.6954 25.2341 28.5717 24.1289 27.1855 24.1289C25.7992 24.1289 24.6755 25.2341 24.6755 26.5974C24.6755 27.9606 25.7992 29.0657 27.1855 29.0657Z" stroke="#011638" stroke-width="1.3" stroke-miterlimit="10" stroke-linecap="round" stroke-linejoin="round"/>
</svg>
