<svg width="211" height="176" viewBox="0 0 211 176" fill="none" xmlns="http://www.w3.org/2000/svg">
<g clip-path="url(#clip0_251_81)">
<path fill-rule="evenodd" clip-rule="evenodd" d="M127.655 -0.377441C129.531 -0.377441 131.406 -0.377441 133.282 -0.377441C135.378 1.61281 136.316 4.1307 136.095 7.17621C139.759 7.71032 141.987 9.97642 142.777 13.9745C143.588 14.9136 144.527 15.669 145.59 16.2406C145.725 17.8092 146.077 19.32 146.645 20.7728C149.055 22.4195 151.165 24.4338 152.975 26.8157C153.741 29.2166 155.031 31.2309 156.843 32.8586C157.685 34.8143 158.389 36.8287 158.953 38.9015C162.286 42.6055 165.217 46.6341 167.745 50.9874C176.121 54.2246 183.858 58.6309 190.955 64.2062C194.235 64.8671 197.049 66.3778 199.395 68.7384C193.99 73.2702 188.715 78.1797 183.57 83.468C179.308 91.1554 176.729 99.4644 175.833 108.395C175.218 110.446 173.929 111.453 171.965 111.417C170.605 118.435 171.192 125.234 173.723 131.811C178.754 135.878 184.029 139.528 189.548 142.764C190.634 144.183 191.923 145.316 193.417 146.163C193.886 146.919 193.886 147.674 193.417 148.429C188.259 148.933 183.101 149.436 177.943 149.94C172.971 149.882 167.931 149.756 162.822 149.562C161.884 148.052 161.884 146.541 162.822 145.03C162.47 144.904 162.118 144.779 161.767 144.653C159.965 146.269 158.324 148.031 156.843 149.94C155.376 149.624 154.321 148.742 153.678 147.296C154.764 145.878 156.053 144.745 157.547 143.897C158.234 141.813 157.648 140.302 155.788 139.365C153.869 146.082 151.407 146.334 148.403 140.12C146.095 141.085 143.868 142.218 141.722 143.52C141.355 143.943 141.12 144.447 141.018 145.03C142.478 145.97 143.182 147.355 143.128 149.185C139.631 149.881 136.115 150.007 132.578 149.562C130.537 147.619 128.309 145.982 125.897 144.653C122.111 146.442 118.477 148.582 114.995 151.073C106.785 152.209 98.8134 151.328 91.0816 148.429C90.4585 147.806 90.2243 147.051 90.3783 146.163C93.6235 145.286 96.9059 144.53 100.225 143.897C100.078 143.455 99.8431 143.077 99.5216 142.764C94.8058 143.217 90.7032 141.832 87.2133 138.61C85.5366 139.53 83.8957 139.53 82.29 138.61C80.386 140.064 79.331 142.078 79.125 144.653C80.1849 146.733 81.5916 148.495 83.345 149.94C82.143 154.283 79.7988 155.29 76.3116 152.962C75.2665 153.261 74.2115 153.513 73.1466 153.717C70.1358 152.716 67.088 151.961 64.0033 151.451C62.9416 151.897 61.8866 152.4 60.8383 152.962C60.0784 154.847 59.1406 156.61 58.025 158.249C56.1919 159.119 54.3164 159.245 52.3983 158.627C50.3679 151.667 46.4995 146.253 40.7933 142.387C39.6707 140.736 39.5535 138.973 40.4416 137.099C40.3065 135.53 39.9548 134.019 39.3866 132.567C36.5312 130.788 33.6006 129.152 30.595 127.657C31.1272 126.515 31.8305 125.507 32.705 124.635C37.1929 122.667 41.2957 120.023 45.0133 116.704C46.0266 113.573 47.5504 110.804 49.585 108.395C48.5234 107.126 47.5856 105.741 46.7716 104.241C47.9975 102.715 48.8181 101.079 49.2333 99.3307C46.9302 96.9188 44.2341 95.5342 41.145 95.1762C40.4296 95.9686 40.3124 96.8501 40.7933 97.82C46.6959 105.801 45.172 111.593 36.2216 115.193C35.0975 114.449 33.9253 114.324 32.705 114.816C31.5327 116.578 30.3605 118.341 29.1883 120.103C28.2505 120.607 27.3127 120.607 26.375 120.103C25.1019 118.106 23.6953 116.218 22.155 114.438C22.9756 112.399 22.8584 110.384 21.8033 108.395C18.3618 105.456 14.7279 102.812 10.9016 100.464C9.1433 97.5684 6.91608 95.1762 4.21997 93.2878C3.38603 89.4928 2.56547 85.716 1.7583 81.9573C4.26161 81.7942 6.72328 82.0465 9.1433 82.7127C11.7354 80.7049 14.3143 80.7049 16.88 82.7127C19.0815 81.1053 21.0742 79.2169 22.8583 77.0474C25.5029 76.1591 27.4957 77.0399 28.8366 79.6912C30.0647 82.582 31.4713 85.3512 33.0566 88.0002C33.7679 88.6325 34.5884 88.884 35.5183 88.7556C35.4188 84.7016 35.3016 80.6724 35.1666 76.6698C35.4578 76.3246 35.8095 76.0723 36.2216 75.9144C37.8752 77.2204 39.7508 77.7243 41.8483 77.4251C41.5782 75.7898 42.0471 74.531 43.255 73.6483C44.8694 74.3522 46.5105 74.9817 48.1783 75.5367C49.2635 76.9553 50.5529 78.0883 52.0466 78.9359C53.9955 83.7838 55.285 88.8198 55.915 94.0432C57.2292 94.8922 58.6359 95.5214 60.135 95.9316C61.1357 98.0851 62.3078 100.1 63.6516 101.974C61.7811 106.784 58.9678 107.413 55.2116 103.863C50.8947 106.119 50.8947 107.881 55.2116 109.15C58.4769 108.408 61.7591 108.282 65.0583 108.773C66.8911 110.237 68.1805 112.125 68.9266 114.438C69.3521 121.617 71.8138 127.785 76.3116 132.944C79.791 135.05 83.5426 136.183 87.565 136.344C88.9048 135.917 90.0766 135.161 91.0816 134.077C91.6499 134.31 92.1191 134.688 92.4883 135.211C97.7042 135.692 102.862 136.574 107.962 137.854C112.27 137.445 116.255 136.06 119.918 133.7C125.869 133.481 131.729 132.725 137.502 131.434C141.307 125.329 145.645 119.664 150.513 114.438C153.742 107.248 156.79 99.9463 159.657 92.5324C161.938 90.329 164.399 88.4406 167.042 86.8672C168.641 85.534 169.813 83.8971 170.558 81.9573C168.645 78.2583 166.3 74.8589 163.525 71.7599C161.648 71.3316 159.773 70.9539 157.898 70.6268C157.77 66.2783 157.184 61.9979 156.14 57.7856C150.596 54.4632 147.08 49.4275 145.59 42.6784C143.654 40.3533 142.013 37.8355 140.667 35.1247C138.811 32.9971 136.701 31.2346 134.337 29.8372C133.144 26.6699 131.151 24.4038 128.358 23.0389C127.696 23.1206 127.11 23.3724 126.6 23.7942C125.71 26.9242 124.42 29.8199 122.732 32.4809C120.856 33.2363 118.981 33.9917 117.105 34.747C113.86 37.861 110.813 41.1343 107.962 44.5668C103.346 45.1571 99.3606 47.1714 96.005 50.6097C92.8815 50.4452 89.7165 50.8228 86.51 51.7427C86.0303 53.5845 86.382 55.2211 87.565 56.6526C86.382 58.0841 86.0303 59.7207 86.51 61.5625C88.2528 64.9468 90.832 67.2129 94.2466 68.3608C96.0971 72.8306 98.2071 77.1109 100.577 81.202C103.359 83.2626 106.29 85.0249 109.368 86.4895C110.349 90.0314 111.404 93.5559 112.533 97.0646C116.347 99.6472 119.747 102.794 122.732 106.507C127.651 106.221 128.941 103.577 126.6 98.5753C124.029 92.5362 119.926 88.3817 114.292 86.1118C111.272 82.511 108.692 78.608 106.555 74.4037C107.685 72.8247 108.036 71.0621 107.61 69.1161C103.883 66.9805 103.531 64.3367 106.555 61.1848C109.209 59.7596 111.788 58.3748 114.292 57.0303C118.763 57.7659 119.701 60.2837 117.105 64.5839C118.753 65.5095 120.043 65.0059 120.973 63.0732C122.383 60.8263 123.086 58.3084 123.083 55.5196C123.552 55.0159 124.021 54.5124 124.49 54.0088C124.622 49.2892 124.974 44.631 125.545 40.0346C126.952 39.531 128.358 39.531 129.765 40.0346C133.413 43.1825 137.047 46.3299 140.667 49.4766C144.647 55.2564 147.694 61.5511 149.81 68.3608C153.46 70.9078 155.922 74.4329 157.195 78.9359C155.152 82.7006 155.621 86.0997 158.602 89.1333C157.986 90.3313 157.282 91.4643 156.492 92.5324C152.979 91.6577 150.634 93.1684 149.458 97.0646C146.065 101.338 142.315 105.24 138.205 108.773C137.267 109.277 136.329 109.277 135.392 108.773C134.527 107.618 133.472 106.736 132.227 106.129C129.309 108.874 127.082 112.147 125.545 115.949C122.042 118.841 118.057 120.477 113.588 120.859C112.509 123.099 111.689 125.491 111.127 128.035C109.396 129.136 107.872 130.52 106.555 132.189C102.742 134.015 99.3423 133.385 96.3566 130.301C95.8003 125.957 94.042 122.307 91.0816 119.348C84.1735 118.991 81.2434 115.089 82.29 107.64C81.8208 106.633 81.1175 105.877 80.18 105.374C79.9458 103.611 79.7108 101.848 79.4766 100.086C77.1268 98.7868 74.6651 97.6538 72.0916 96.6869C70.7145 94.6112 69.4252 92.4705 68.2233 90.2663C66.983 89.1756 65.5763 88.4202 64.0033 88.0002C62.4118 84.7975 61.7085 81.5245 61.8933 78.1805C60.5897 75.3699 58.9485 72.8521 56.97 70.6268C56.7355 69.1161 56.5011 67.6054 56.2666 66.0947C52.8875 65.7377 51.2465 63.7233 51.3433 60.0517C50.0665 58.6128 48.6599 57.3539 47.1233 56.2749C46.2889 51.9272 47.8128 50.6683 51.695 52.4981C53.9886 50.2831 56.5675 49.7795 59.4316 50.9874C61.8743 49.7488 63.7499 47.8604 65.0583 45.3221C68.0127 44.611 70.8256 43.4779 73.4983 41.923C74.8586 38.1959 77.2028 35.4262 80.5316 33.614C81.8405 34.3907 82.7788 35.5238 83.345 37.0131C87.2541 38.3167 89.3641 36.806 89.675 32.4809C92.2513 31.7244 93.8922 32.7315 94.5983 35.5024C94.2959 36.5857 93.7093 37.4669 92.84 38.1462C92.6824 41.5043 93.9716 42.3855 96.7083 40.7899C98.8183 38.0202 100.928 35.2506 103.038 32.4809C106.717 32.0861 109.999 30.7013 112.885 28.3264C114.053 25.8352 115.225 23.3172 116.402 20.7728C114.508 19.4325 112.398 18.4253 110.072 17.7513C108.626 18.165 107.453 19.0462 106.555 20.3951C104.833 20.9808 103.66 20.3513 103.038 18.5067C104.026 13.92 106.606 11.1503 110.775 10.1977C115.083 11.6904 119.537 12.0681 124.138 11.3307C126.34 9.23918 126.809 6.72133 125.545 3.77706C126.418 2.4696 127.121 1.08477 127.655 -0.377441Z" fill="#FBDC33"/>
<path fill-rule="evenodd" clip-rule="evenodd" d="M8.79174 63.8281C11.9809 64.3601 13.5048 66.3743 13.3634 69.871C12.1739 72.6755 10.1812 73.5568 7.38508 72.5148C5.65157 72.0373 4.47934 70.9042 3.86841 69.1157C5.28991 67.0854 6.93102 65.3229 8.79174 63.8281Z" fill="#FBDC33"/>
<path fill-rule="evenodd" clip-rule="evenodd" d="M210.648 89.5108C210.648 93.2877 210.648 97.0645 210.648 100.841C207.326 108.744 204.161 116.801 201.153 125.013C199.809 126.642 198.636 128.405 197.637 130.301C196.077 131.901 194.318 132.153 192.362 131.056C191.476 126.769 191.594 122.489 192.713 118.215C195.349 112.804 198.162 107.516 201.153 102.352C202.421 98.6696 203.358 94.8928 203.967 91.0216C206.009 89.7171 208.236 89.214 210.648 89.5108Z" fill="#FBDC33"/>
</g>
<defs>
<clipPath id="clip0_251_81">
<rect width="211" height="176" fill="white"/>
</clipPath>
</defs>
</svg>
