<svg width="308" height="129" viewBox="0 0 308 129" fill="none" xmlns="http://www.w3.org/2000/svg">
<path d="M302.06 110.851H304.56V108.351V20.6925V18.1925H302.06C299.403 18.1925 297.083 17.3606 295.479 16.1326C293.875 14.9048 293.099 13.3917 293.099 11.9266V9.42662H290.599H287.124C286.589 7.6931 285.322 6.30899 283.876 5.36048C281.937 4.08772 279.402 3.37817 276.723 3.37817L31.0633 3.37817C28.3932 3.37817 25.8588 4.07217 23.9153 5.34049C22.458 6.29152 21.1903 7.68103 20.6585 9.42662H17.1357H14.6357L14.6357 11.9266C14.6357 13.3917 13.8595 14.9048 12.256 16.1326C10.6522 17.3606 8.33194 18.1925 5.67505 18.1925H3.17505L3.17505 20.6925L3.17505 108.307L3.17505 110.807H5.67505C8.33194 110.807 10.6522 111.639 12.256 112.867C13.8595 114.095 14.6357 115.608 14.6357 117.073V119.573H17.1357H20.6108C21.1458 121.307 22.4132 122.691 23.8585 123.639C25.7977 124.912 28.3324 125.622 31.0119 125.622L276.62 125.622C279.29 125.622 281.825 124.928 283.768 123.659C285.225 122.708 286.493 121.319 287.025 119.573H290.496H292.944L292.996 117.126C293.058 114.22 296.466 110.851 302.06 110.851Z" stroke="#011638" stroke-width="5"/>
</svg>
