<svg width="275" height="83" viewBox="0 0 275 83" fill="none" xmlns="http://www.w3.org/2000/svg">
<path d="M260.566 20.2643V15.1915C252.588 15.1915 246.133 11.6567 246.133 7.31241H222.734C222.689 3.26495 216.683 0 209.242 0H65.7579C58.3619 0 52.3553 3.26495 52.2657 7.31241H31.3773C31.3773 11.6567 24.9226 15.1915 16.9438 15.1915V20.0484C7.57539 20.0484 0 29.6544 0 41.473C0 53.3186 7.57539 62.8976 16.9438 62.8976V67.7545C24.9226 67.7545 31.3773 71.2893 31.3773 75.6336H52.2657C52.2657 79.7081 58.317 83 65.7579 83H209.242C216.683 83 222.734 79.7081 222.734 75.6336H246.133C246.133 71.2893 252.588 67.7545 260.566 67.7545V62.6817C268.725 61.1167 275 52.2123 275 41.446C275 30.7068 268.725 21.8023 260.566 20.2643Z" fill="#FBDC33"/>
</svg>
