<svg xmlns="http://www.w3.org/2000/svg" fill="none" viewBox="5.1 0 1313.9 484">
<path d="M1317.5 479.531V479.613L1311.25 482.5H14.0691L7.73887 479.439L31.2473 468.218L34.0832 466.864L31.2473 465.51L7.75717 454.297L31.2473 443.085L34.0832 441.731L31.2473 440.377L7.75717 429.164L31.2473 417.952L34.0832 416.598L31.2473 415.244L7.75716 404.031L31.2473 392.819L34.0832 391.465L31.2473 390.111L7.75717 378.898L31.2473 367.686L34.0832 366.332L31.2473 364.978L7.75717 353.766L31.2473 342.553L34.0745 341.203L31.2505 339.847L10.513 329.887C25.0961 326.625 37.9147 316.533 47.3243 302.205C57.739 286.346 64.0524 265.205 64.0524 242C64.0524 209.53 51.7238 181.094 32.9527 165.434L33.5197 164.954L31.5051 163.931L30.4833 163.412C24.3583 159.012 17.7383 155.715 10.8416 154.131L7.77883 152.691L31.2473 141.489L34.0832 140.135L31.2473 138.782L7.75714 127.569L31.2473 116.356L34.0832 115.002L31.2473 113.649L7.75714 102.436L31.2473 91.2231L34.0832 89.8694L31.2473 88.5157L7.75714 77.3029L31.2473 66.0901L34.0832 64.7364L31.2473 63.3827L7.75714 52.1699L31.2473 40.9571L34.0832 39.6035L31.2473 38.2498L7.77882 27.0473L31.2393 16.0184L34.0996 14.6737L31.2492 13.3081L6.60256 1.5H1317.05V2.10081L1293.6 13.3075L1290.77 14.6609L1293.6 16.0143L1317.05 27.221V27.2338L1293.6 38.4405L1290.77 39.7939L1293.6 41.1472L1317.05 52.354V52.3667L1293.6 63.5735L1290.77 64.9268L1293.6 66.2802L1317.05 77.4869V77.4997L1293.6 88.7064L1290.77 90.0598L1293.6 91.4132L1317.05 102.62V102.633L1293.6 113.839L1290.77 115.193L1293.6 116.546L1317.05 127.753V127.766L1293.6 138.972L1290.77 140.326L1293.6 141.679L1317.05 152.886V152.899L1293.6 164.105L1290.72 165.482L1293.62 166.821L1299.05 169.325C1282.72 185.46 1272.27 211.995 1272.27 242C1272.27 270.914 1282.1 296.695 1297.55 312.947L1293.83 314.711L1290.98 316.06L1293.83 317.419L1317.28 328.626V328.639L1293.83 339.846L1291 341.199L1293.83 342.552L1317.28 353.759V353.772L1293.83 364.979L1291 366.332L1293.83 367.685L1317.28 378.892V378.905L1293.83 390.112L1291 391.465L1293.83 392.818L1317.28 404.025V404.038L1293.83 415.245L1291 416.598L1293.83 417.951L1317.28 429.158V429.171L1293.83 440.378L1291 441.731L1293.83 443.084L1317.28 454.291V454.304L1293.83 465.51L1291 466.864L1293.83 468.217L1317.5 479.531Z" stroke="#011638" stroke-width="3"/>
</svg>