<svg width="200" height="105" viewBox="0 0 200 105" fill="none" xmlns="http://www.w3.org/2000/svg">
<path d="M49.6361 93.8856L49.2118 93.7265H48.7586H9.63794V73.7819V71.2819H7.13794H2.5V36.4312H7.13794H9.63794V33.9312V11.2735H48.7586H49.2118L49.6361 11.1145C64.0911 5.69638 81.4809 2.5 100.276 2.5C119.037 2.5 136.461 5.69647 150.916 11.1145L151.34 11.2735H151.793H190.914V33.9312V36.4312H193.414H197.5V71.2819H193.414H190.914V73.7819V93.7265H151.793H151.34L150.916 93.8856C136.461 99.3036 119.071 102.5 100.276 102.5C81.5151 102.5 64.0908 99.3035 49.6361 93.8856Z" stroke="#71697A" stroke-width="5"/>
</svg>
