<svg width="134" height="70" viewBox="0 0 134 70" fill="none" xmlns="http://www.w3.org/2000/svg">
<path d="M1.6958 68.5994L25.3609 0.929932L49.026 68.5994H1.6958Z" stroke="#011638" stroke-width="1.6" stroke-linejoin="round"/>
<path d="M17.5884 32.1599C17.5884 27.9944 21.1 24.6204 25.4353 24.6204C29.7706 24.6204 33.2822 27.9944 33.2822 32.1599C33.2822 36.3254 29.7706 39.6994 25.4353 39.6994C21.1 39.6994 17.5884 36.3254 17.5884 32.1599Z" stroke="#011638" stroke-width="1.6" stroke-linejoin="round"/>
<path d="M25.4795 24.6992V39.4609" stroke="#011638" stroke-width="1.6" stroke-linejoin="round"/>
<path d="M17.6934 32.44L33.2657 32.302" stroke="#011638" stroke-width="1.6" stroke-linejoin="round"/>
<path d="M83.8664 50.856L72.2744 22.668C71.9864 22.02 71.7344 21.3 71.5184 20.508C71.2544 21.3 71.0024 22.02 70.7624 22.668L59.1704 50.856H83.8664ZM93.4064 69H91.8944C91.4864 69 91.2224 68.796 91.1024 68.388L84.5144 52.368H58.5224L51.9344 68.388C51.8144 68.796 51.5264 69 51.0704 69H49.6304L70.5824 18.384H72.4544L93.4064 69ZM133.802 69H131.858C131.618 69 131.438 68.928 131.318 68.784C131.198 68.616 131.078 68.472 130.958 68.352L113.714 43.98C113.642 44.268 113.522 44.508 113.354 44.7L96.3624 68.352C96.2184 68.496 96.0744 68.64 95.9304 68.784C95.8104 68.928 95.6544 69 95.4624 69H93.6264L112.346 43.08L94.4544 18.384H96.3984C96.6384 18.384 96.8064 18.456 96.9024 18.6C97.0224 18.72 97.1424 18.84 97.2624 18.96L113.786 42.108C113.834 41.988 113.882 41.868 113.93 41.748C114.002 41.604 114.086 41.46 114.182 41.316L130.274 18.996C130.37 18.852 130.478 18.72 130.598 18.6C130.742 18.456 130.91 18.384 131.102 18.384H132.974L115.154 42.936L133.802 69Z" fill="#011638"/>
<path d="M15.75 5L16.3903 6.46365C17.0742 8.02668 16.8478 9.83861 15.8003 11.1853V11.1853C14.7002 12.5997 14.5101 14.5201 15.3114 16.1228L15.75 17" stroke="#011638" stroke-width="1.5"/>
<path d="M10.3 34.0001L10.3 43.9788L18.5823 20.3001L10.3 20.3001L10.3 34.0001Z" stroke="#011638" stroke-width="1.6"/>
</svg>
