<svg width="405" height="303" viewBox="0 0 405 303" fill="none" xmlns="http://www.w3.org/2000/svg">
<path d="M233.722 48.0178C203.222 66.1011 170.751 81.8614 141.535 102.011C134.023 107.192 73.0592 150.456 97.2639 164.598C113.174 173.893 141.256 171.011 158.028 169.893C194.404 167.468 230.088 159.774 265.406 151.143C293.394 144.303 321.323 136.824 348.132 126.143C357.938 122.236 377.04 113.455 386.847 108.434C388.543 107.566 400.58 101.453 403.167 98.0178C411.727 86.6482 359.379 76.9382 356.812 76.6636C284.933 68.9742 218.771 101.083 164.625 145.674C137.332 168.15 109.507 194.067 112.715 232.566C115.619 267.411 189.277 239.16 203.34 233.087C253.025 211.632 307.308 173.878 327.646 121.455C332.466 109.031 336.596 91.3533 328.514 79.181C314.682 58.3493 279.358 52.7811 256.812 56.6983C199.377 66.6774 165.985 139.336 152.125 188.99C145.434 212.962 130.625 272.406 161.847 288.122C189.211 301.896 217.385 275.512 232.16 255.657C249.131 232.85 261.95 206.455 271.049 179.615C277.964 159.215 286.361 131.669 276.865 110.518C266.106 86.5555 240.118 101.652 227.125 114.337C207.837 133.169 192.072 156.12 177.125 178.4C158.801 205.713 140.894 234.502 127.993 264.858C127.4 266.253 113.507 304.475 130.25 293.851C143.25 285.603 152.35 268.932 158.722 255.743C172.838 226.531 178.222 194.375 176.257 162.08C172.008 92.2462 102.193 25.3988 31.2916 59.6497C22.6118 63.8428 6.13768 72.3879 1.60413 81.9587C-3.54443 92.8279 25.5697 86.3188 37.5416 85.1705C82.2379 80.8837 126.771 73.9458 171.222 67.7226C215.599 61.5098 260.625 56.4844 304.469 46.9761C309.896 45.7991 323.538 42.2849 307.854 42.115C284.134 41.8581 260.263 45.3629 237.021 49.6671C208.87 54.8802 180.357 61.4832 153.34 71.108C140.931 75.5287 114.683 83.6069 116.882 101.837C119.94 127.194 151.188 149.083 172.264 157.566C189.915 164.671 208.968 168.461 227.646 171.629C245.531 174.662 252.439 173.381 261.76 157.132C273.372 136.891 278.076 115.248 274.174 92.115C273.705 89.3389 272.6 82.2312 270.007 79.9622C264.679 75.3006 241.801 90.749 239.625 91.9414C187.441 120.542 133.944 148.499 83.5486 180.136C70.7564 188.166 55.8087 197.147 45.2673 208.348C36.4837 217.68 70.5181 203.205 82.4201 198.452C148.578 172.031 214.742 143.153 266.882 93.2435C271.302 89.0121 275.551 84.5891 279.556 79.9622C282.304 76.7872 287.177 72.9937 285.806 69.0247C283.835 63.3218 255.168 68.8668 253.34 69.1983C225.278 74.2874 15.8404 137.139 65.059 188.035C76.9942 200.377 93.7292 206.859 109.937 211.386C137.245 219.012 166.245 222.973 194.573 223.365C213.218 223.623 234.387 222.705 247.958 207.566C268.826 184.288 272.611 145.231 274.521 115.726C275.805 95.8936 275.602 75.2919 270.267 56.0039C269.252 52.3336 266.037 41.523 261.847 38.6428C252.499 32.2161 211.243 125.106 208.722 131.438C199.036 155.775 191.72 180.96 187.715 206.872C186.126 217.157 184.54 229.217 187.889 239.424C194.462 259.456 221.944 250.185 234.764 242.636C263.597 225.658 283.07 196.319 288.236 163.469C290.225 150.823 290.104 137.689 289.885 124.927C289.788 119.233 290.038 102.483 288.323 107.914C281.329 130.062 278.814 155.945 277.125 178.921C275.338 203.229 272.659 231.504 276.604 255.83C277.142 259.145 279.98 271.76 285.632 271.108C291.739 270.403 296.94 257.806 298.392 254.615C312.169 224.343 318.8 190.272 321.656 157.306C323.838 132.12 324.099 98.5 296.135 87.2539C286.741 83.4757 276.454 84.4244 266.708 86.0386C239.801 90.4951 212.71 98.425 187.194 107.914C166.146 115.741 144.992 124.958 125.476 136.125C114.05 142.663 101.345 150.545 97.0902 163.99C93.1597 176.411 96.0025 192.553 98.9132 204.702C105.073 230.412 118.844 249.95 141.274 264.164C171.669 283.423 223.886 297.412 256.726 275.796C272.602 265.345 276.732 247.861 279.035 230.136C283.017 199.476 281.96 166.984 275.562 136.733C273.035 124.782 264.745 88.774 247.611 86.5594C234.292 84.8379 215.635 94.3815 204.729 99.233C166.857 116.081 128.194 137.671 98.1319 166.594C78.6272 185.36 62.2938 208.276 54.0347 234.302C50.945 244.039 50.576 251.832 60.1111 256.264C91.1539 270.693 139.883 255.021 166.014 237.601C199.48 215.29 205.036 174.394 197.785 137.254C196.422 130.276 186.545 95.764 172.785 100.448C148.873 108.588 134.748 147.841 126.517 168.417C119.363 186.302 113.645 204.79 110.806 223.886C108.426 239.889 104.487 263.73 116.708 277.184C130.387 292.244 153.334 297.792 172.437 300.362C198.034 303.804 226.721 303.032 251.431 294.719C310.909 274.71 315.98 210.677 310.545 156.872C306.626 118.072 289.124 71.6528 254.295 49.8407C234.533 37.4646 218.545 54.6041 207.16 69.8928C165.415 125.95 141.504 232.043 221.309 269.112C249.327 282.125 299.534 287.955 320.354 259.737C334.161 241.023 335.159 215.925 334.417 193.677C333.137 155.333 327.418 112.151 304.382 80.1358C276.794 41.7946 233.92 34.5219 189.625 39.5108C137.862 45.3408 77.3599 70.1642 47.4375 115.205C40.1526 126.171 30.8395 147.294 42.6632 158.695C51.6261 167.338 67.3606 167.996 78.6875 169.372C114.032 173.664 152.329 178.611 187.889 174.059C202.804 172.151 216.95 167.5 223.566 152.966C229.578 139.758 229.339 122.381 228.687 108.261C227.017 72.0599 207.414 31.1152 175.91 11.0386C153.759 -3.07709 117.982 4.32525 98.7395 19.7192C67.5272 44.689 40.4222 96.5386 52.4722 137.427C64.3524 177.74 109.147 203.497 145.701 217.115C173.113 227.327 202.283 232.514 231.465 233.348C257.079 234.079 287.375 232.723 302.559 208.608C325.081 172.837 312.112 122.178 293.531 87.8615C286.541 74.9525 277.192 59.9281 263.931 52.358C247.109 42.7563 227.176 48.6369 211.5 57.3928C198.971 64.3906 62.0891 169.532 83.5486 185.344C87.0152 187.898 96.5335 187.353 99.868 187.08C123.442 185.151 145.373 176.352 166.448 166.073C204.76 147.387 237.1 125.272 251.431 84.1289C251.766 83.1663 252.395 80.2799 251.778 81.0907C245.884 88.8258 238.824 95.1081 231.292 101.316C182.398 141.613 125.378 173.679 80.0764 218.157C55.9813 241.814 94.9661 228.097 105.25 222.931C153.534 198.676 197.945 152.701 218.792 102.532C221.244 96.6288 224.163 88.8401 217.142 101.837C204.086 126.009 190.229 149.649 175.215 172.671C162.56 192.075 149.029 210.658 134.59 228.747C133.104 230.609 116.739 246.328 129.295 235.865C147.34 220.827 169.087 210.046 189.278 198.365C217.925 181.791 246.217 164.643 274.781 147.931C284.063 142.501 309.461 124.536 303.687 133.608C297.716 142.992 287.12 148.481 278.34 155.309C260.279 169.357 231.278 190.828 213.062 203.921C183.032 225.505 152.231 245.889 121.483 266.421C107.086 276.033 62.7474 302.735 78.5139 295.587C141.842 266.879 207.286 242.316 269.139 210.344C272.119 208.804 298.705 193.936 275.042 209.823C251.334 225.74 226.865 240.565 202.472 255.396C190.825 262.478 179.131 269.924 167.056 276.316C159.438 280.349 182.203 268.07 189.972 264.337C253.237 233.939 317.147 204.805 381.292 176.316C384.146 175.049 386.931 173.597 389.885 172.584C395.45 170.676 379.677 178.433 374.521 181.264C342.569 198.81 310.852 216.751 279.295 234.997C260.528 245.848 240.186 256.192 222.437 268.851C216.162 273.327 221.582 272.882 225.996 271.716C245.855 266.47 265.368 259.013 284.764 252.358C313.455 242.514 347.427 234.834 373.132 217.983C390.878 206.349 392.815 178.432 382.333 161.039C361.161 125.905 299.588 123.173 264.278 123.973C210.922 125.181 155.408 141.636 106.031 160.865C84.0286 169.434 62.7376 179.631 42.5764 191.941C37.9979 194.737 27.4629 201.832 22.6111 205.83C21.1618 207.024 17.813 209.665 19.4861 210.518C26.4823 214.084 47.895 211.625 53.1666 211.386C87.2112 209.838 119.748 204.242 150.736 188.99C178.329 175.409 258.195 126.604 223.653 85.2574C210.534 69.5543 184.639 65.4966 165.319 66.0733C134.989 66.9787 108.543 93.9443 100.215 121.976C97.9344 129.654 93.9611 150.513 99.1736 158.261C111.773 176.99 151.737 115.363 154.903 110.431C167.201 91.2748 177.061 70.8095 184.764 49.4067C187.95 40.5531 191.959 29.7547 191.795 20.0664C191.44 -0.910419 165.545 27.8519 162.021 31.5247C132.862 61.9122 103.752 98.5745 85.6319 136.733C76.4149 156.143 76.8199 176.99 92.4027 192.983C112.308 213.412 145.126 210.888 166.535 194.198C186.956 178.278 200.298 154.381 209.937 130.83C221.446 102.714 229.853 69.1963 224.694 38.6428C207.769 -61.6064 75.0619 66.1971 53.1666 101.23C42.2787 118.65 35.1632 141.582 59.243 151.316C80.4901 159.906 107.259 159.429 129.556 159.823C181.268 160.737 236.161 159.054 285.458 141.594C327.951 126.545 384.652 86.9196 380.771 34.8233C379.714 20.6381 367.88 0.984108 351.344 7.9136C333.405 15.4309 317.468 31.3694 303.514 44.1983C280.227 65.607 258.443 88.3776 238.931 113.296C223.416 133.108 208.734 154.22 196.917 176.49C191.021 187.601 181.731 205.025 182.854 218.504C184.186 234.486 245.778 188.435 249.174 185.865C262.901 175.473 276.244 164.529 288.844 152.792C293.517 148.439 297.787 144.782 293.271 154.528C287.635 166.69 279.506 177.708 271.396 188.296C267.27 193.682 260.484 204.443 254.121 208.261C251.37 209.912 254.803 198.043 255.597 196.455" stroke="black"/>
</svg>
