<svg width="490" height="405" viewBox="0 0 490 405" fill="none" xmlns="http://www.w3.org/2000/svg">
<path d="M101.809 101.581C101.809 122.472 101.809 143.363 101.809 164.255C101.809 186.528 100.022 210.408 107.712 231.789C119.109 263.479 146.514 282.653 177.33 293.248C224.643 309.514 278.19 312.195 327.504 306.269C376.011 300.439 441.015 288.632 471.948 245.678C490.501 219.916 494.114 178.558 483.58 149.15C471.38 115.091 440.088 88.0033 409.275 71.0255C369.502 49.1114 323.931 44.3487 283.32 66.6852C244.419 88.0807 213.768 124.6 184.882 157.397C155.256 191.035 127.067 225.934 98.2502 260.262C95.655 263.353 58.9331 302.504 90.785 278.838C125.05 253.378 159.438 227.523 192.087 200.019C219.607 176.835 248.99 151.469 262.92 117.293C266.849 107.655 273.992 86.6377 257.712 84.1331C231.72 80.1344 202.127 102.11 182.886 115.644C125.195 156.223 66.1551 204.965 25.2468 263.039C19.1733 271.661 -0.684693 298.083 1.11482 311.13C2.12179 318.43 30.6263 315.679 33.0593 315.644C67.7283 315.136 102.658 311.723 135.143 298.63C175.489 282.367 209.825 253.922 241.219 224.498C262.554 204.502 280.862 182.607 299.726 160.435C307.7 151.063 310.116 153.165 308.233 165.296C302.699 200.942 289.989 235.719 279.761 270.157C267.605 311.087 254.016 352.374 245.559 394.289C243.583 404.085 244.434 407.316 253.719 400.105C277.922 381.31 298.713 355.359 317.347 331.355C349.824 289.521 369.382 244.764 381.41 193.248C388.591 162.49 397.583 125.223 392.868 93.1609C391.47 83.6541 387.654 83.0827 379.847 87.2581C357.357 99.288 336.339 115.383 316.045 130.661C283.427 155.218 251.477 181.253 220.559 207.918C195.063 229.907 162.414 258.05 155.455 293.248C151.787 311.801 166.393 323.992 181.67 331.095C208.933 343.77 242.753 346.763 272.295 342.901C304.242 338.723 330.779 324.001 342.608 292.553C356.267 256.238 354.664 209.438 339.83 173.803C326.062 140.729 297.737 111.698 265.525 96.1991C248.732 88.1196 225.477 83.8078 209.622 96.7199C184.873 116.875 171.919 157.084 162.747 186.13C151.796 220.807 148.01 262.466 153.545 298.543C155.94 314.152 163.074 329.811 179.24 334.828C198.204 340.713 221.17 334.595 237.747 325.019C301.092 288.426 311.61 198.685 305.281 132.918C303.159 110.86 298.306 80.8564 282.712 63.4734C274.24 54.0288 257.009 66.3413 249.9 71.0255C185.508 113.448 120.357 183.042 108.927 262.171C105.91 283.063 108.626 305.533 125.941 319.81C148.322 338.264 184.175 343.961 212.052 344.984C251.721 346.439 287.38 334.83 312.92 302.97C342.443 266.142 356.214 217.12 356.67 170.505C357.103 126.292 337.517 40.1867 276.636 47.9352C252.303 51.0322 231.023 68.1217 213.441 83.8727C177.374 116.184 160.265 151.422 151.549 198.977C145.42 232.414 141.033 265.564 165.177 292.727C189.18 319.73 223.983 335.532 258.059 345.418C286.647 353.712 324.421 361.64 353.025 348.543C392.376 330.524 386.535 268.127 383.754 233.525C380.169 188.935 369.888 144.39 345.906 106.095C333.077 85.6076 314.624 63.5962 288.094 64.0811C257.075 64.648 228.071 86.0122 204.761 104.012C166.635 133.451 129.559 168.341 108.406 212.345C100.541 228.707 90.3427 254.286 95.9933 273.022C103.426 297.666 140.739 307.885 161.531 314.341C208.494 328.925 258.477 336.13 307.625 336.13C349.286 336.13 384.344 329.643 401.636 287.519C427.421 224.703 412.783 134.11 366.045 83.6123C360.182 77.277 352.847 72.9716 344.257 76.4074C336.27 79.6024 330.03 84.5056 323.163 89.7755C301.787 106.181 281.486 124.191 261.011 141.685C227.798 170.061 192.529 198.339 166.74 234.046C152.036 254.405 132.175 287.965 140.525 314.776C149.37 343.18 189.207 349.257 213.615 351.928C251.986 356.128 297.614 355.398 332.191 335.782C369.182 314.798 387.108 276.642 392.434 235.956C398.207 191.854 395.995 141.115 382.191 98.6297C371.424 65.4883 349.652 32.5211 322.469 10.4352C304.37 -4.27006 288.543 -1.10705 273.597 15.2095C252.574 38.1621 233.675 63.3965 213.354 86.9977C188.873 115.431 164.514 144.014 146.427 177.102C136.459 195.338 127.227 216.173 127.591 237.432C127.908 255.976 141.751 262.024 158.32 265.73C195.24 273.989 237.039 273.645 274.379 268.855C305.227 264.898 338.658 254.73 353.545 224.671C374.131 183.108 345.547 138.658 320.472 106.529C307.52 89.9326 292.231 73.3208 274.466 61.4769C263.78 54.3531 253.196 55.9723 241.219 58.0047C189.628 66.7596 140.657 102.744 119.865 151.407C113.573 166.134 108.764 185.083 115.004 200.713C123.042 220.848 143.414 230.363 163.615 233.525C186.33 237.081 217.377 237.002 238.094 225.366C256.917 214.794 257.004 190.479 256.497 171.72C255.493 134.568 244.231 100.646 221.948 70.6783C199.936 41.0738 165.754 11.661 127.156 9.48036C100.478 7.97312 86.6212 28.299 74.8995 49.4977C58.7276 78.7449 48.4662 110.141 44.778 143.335C42.0505 167.882 40.9124 194.264 49.9863 217.727C59.0408 241.139 76.4048 261.352 96.4273 276.147C126.165 298.12 162.363 310.75 198.25 318.248C235.934 326.12 278.629 329.984 315.611 316.512C357.777 301.151 366.447 263.36 369.604 222.414C373.245 175.199 372.527 119.382 343.997 79.0116C335.23 66.6061 319.596 51.0671 302.851 58.8727C276.071 71.3556 254.251 103.944 237.226 126.407C213.82 157.291 191.517 190.334 175.42 225.713C173.535 229.858 160.229 256.181 165.872 262.345C174.654 271.937 210.387 263.004 219.17 260.782C245.882 254.026 275.542 240.496 288.268 214.255C299.471 191.153 298.468 158.184 292.955 133.873C285.017 98.8633 260.909 65.636 225.854 54.272C168.965 35.8297 151.37 96.5941 147.729 140.644C143.642 190.103 155.029 243.221 209.448 256.963C233.136 262.945 262.297 264.824 285.403 255.4C308.65 245.92 317.329 223.975 320.299 200.626C324.274 169.371 326.361 51.9573 266.393 71.8936C236.009 81.9943 210.081 109.56 188.788 132.137C167.456 154.755 150.043 180.055 132.712 205.748C130.42 209.146 101.229 240.703 113.702 246.373C129.391 253.504 148.95 254.841 165.785 256.703C178.216 258.077 187.122 258.743 199.466 259.046C205.243 259.188 215.236 260.426 220.559 255.835C227.618 249.746 227.767 237.499 228.459 229.793C229.909 213.63 229.941 195.633 228.806 179.532C225.754 136.258 211.429 94.3074 182.018 61.6505C176.623 55.6603 159.907 38.4538 149.031 43.5949C135.371 50.0525 132.177 82.8542 130.108 94.2894C123.986 128.117 120.384 163.424 118.823 197.762C117.583 225.043 120.117 252.728 132.712 277.449C148.238 307.923 189.167 307.44 212.747 285.782C260.004 242.377 276.599 171.602 272.816 110.001C272.692 107.981 273.317 93.8844 267.174 98.4561C261.619 102.59 256.496 109.895 252.764 114.862C240.435 131.273 227.25 150.509 216.045 167.293C191.512 204.043 166.315 241.764 150.42 283.265C145.619 295.803 136.217 319.108 143.736 332.831C152.294 348.449 184.815 346.044 198.424 345.765C236.326 344.989 275.395 337.994 307.972 317.553C336.903 299.401 350.529 273.381 351.375 239.515C351.938 217.001 349.182 198.229 344.604 176.147C339.735 152.657 333.815 128.647 315.177 111.998C300.998 99.3311 275.413 83.2662 255.281 89.7755C230.089 97.9212 214.043 126.313 203.025 148.109C186.852 180.099 176.103 214.283 171.601 249.845C168.369 275.376 165.814 304.761 176.636 329.012C188.103 354.709 209.534 367.258 236.011 373.803C276.746 383.874 326.133 391.544 367.781 382.657C465.677 361.769 442.217 226.97 401.028 165.904C377.279 130.694 317.019 75.0299 269.952 102.015C241.764 118.176 221.655 148.806 202.851 174.237C185.913 197.144 168.362 219.831 161.966 248.109C159.747 257.919 154.142 278.485 161.358 287.866C172.777 302.71 205.542 300.913 221.08 299.932C255.052 297.786 290.296 287.177 312.486 259.741C336.798 229.682 340.379 180.876 329.24 144.984C321.867 121.226 304.36 95.3087 281.323 84.0463C262.348 74.7694 239.345 83.1137 222.295 92.5533C196.848 106.642 176.458 128.789 155.802 148.803C155.66 148.941 122.946 178.975 132.538 178.664C141.22 178.383 174.579 168.972 177.156 168.248C194.802 163.294 235.852 150.986 253.372 144.81C280.641 135.199 304.672 123.445 324.031 101.581C329.162 95.7866 333.441 89.2553 334.969 81.6158C335.081 81.054 334.144 82.4115 333.754 82.8311C325.099 92.1419 314.714 99.4473 303.979 106.182C273.639 125.216 240.601 139.696 207.712 153.664C197.773 157.885 184.651 163.413 174.031 167.206C168.395 169.219 164.253 170.683 171.948 166.164C202.928 147.974 235.585 132.401 267.521 115.991C276.822 111.212 285.966 106.121 295.386 101.581C297.586 100.521 300.507 97.7806 301.288 101.494C304.118 114.933 292.528 132.789 286.445 143.248C273.577 165.37 258.987 186.609 245.212 208.178C240.574 215.441 230.811 224.248 245.125 220.244C277.781 211.11 309.907 200.233 342.261 190.123C350.612 187.513 342.72 195.12 340.177 197.935C325.637 214.036 309.292 227.244 292.087 240.296C277.237 251.562 312.846 243.156 313.615 243.074C335.986 240.703 358.936 237.237 381.497 237.519C399.447 237.743 383.225 262.244 382.886 270.852C382.537 279.676 408.308 265.36 408.754 265.123C424.179 256.918 435.754 243.953 450.42 235.262C454.624 232.771 452.846 245.052 451.896 249.845C449.399 262.438 445.45 274.775 441.306 286.911C439.618 291.853 438.908 286.95 438.702 284.22C436.991 261.633 445.853 241.367 451.983 220.157C466.603 169.571 465.061 101.035 424.726 61.8241C403.73 41.4134 375.083 35.1424 346.775 33.8727C294.812 31.5422 237.564 39.5864 190.872 63.3866C172.793 72.6019 156.913 85.5732 151.722 105.835C147.605 121.906 148.033 140.036 149.205 156.442C150.669 176.937 155.641 197.024 170.472 212.171C184.022 226.009 211.609 245.638 232.365 244.029C254.155 242.34 261.344 205.017 263.788 189.428C269.332 154.074 269.182 114.679 264.049 79.272C261.393 60.95 255.955 36.2065 240.611 23.6297C230.14 15.0469 207.554 23.326 197.469 27.1019C159.561 41.2948 123.165 62.7815 90.5245 86.4769C64.9415 105.049 27.7093 129.475 18.8232 162.345C13.6325 181.545 12.7317 206.74 25.0732 223.456C44.8739 250.275 76.2972 270.36 107.191 281.616C162.809 301.88 267.513 318.526 299.379 251.407C313.487 221.692 320.798 152.578 275.334 146.633C246.56 142.87 218.101 152.07 192.781 165.123C153.509 185.368 112.561 213.686 84.1877 248.022C80.459 252.534 67.1785 270.878 78.719 275.973C86.1103 279.237 99.5364 279.146 106.15 279.359C124.643 279.953 143.619 279.909 162.052 278.491C229.62 273.293 305.791 246.8 308.493 167.987C309.093 150.503 304.147 136.793 286.271 131.442C258.988 123.275 225.673 126.721 199.726 137.866C164.936 152.808 142.309 184.201 138.788 221.72C136.738 243.575 136.545 267.125 139.483 288.907C140.88 299.263 143.811 320.379 156.323 324.498C174.062 330.337 200.418 312.17 212.573 302.276C243.497 277.102 265.961 239.963 281.67 203.838C293.936 175.631 302.514 144.062 300.768 113.039C300.318 105.055 298.856 90.1645 287.4 93.0741C269.389 97.6483 252.566 113.28 239.309 125.192C216.818 145.402 194.182 168.261 177.417 193.595C174.362 198.211 163.125 216.313 174.118 220.071C193.096 226.557 222.261 217.433 240.351 211.998C257.035 206.985 272.011 196.448 288.615 191.946C299.518 188.989 285.795 216.186 285.49 216.946C280.629 229.025 277.349 236.02 272.903 248.282C271.271 252.783 265.867 265.592 267.868 271.894C274.855 293.888 336.446 248.921 343.476 243.769C356.444 234.262 391.524 201.23 380.802 213.213C371.24 223.9 360.808 234.257 350.247 243.942C346.037 247.803 342.759 250.506 338.268 253.664C337.461 254.231 339.753 252.368 340.525 251.755C366.598 231.039 390.46 207.581 413.615 183.699C430.13 166.665 446.251 149.252 461.531 131.095C467.934 123.487 473.038 114.81 479.761 107.484C480.431 106.754 476.574 132.966 476.288 134.046C470.62 155.49 465.294 176.973 459.795 198.456C451.185 232.099 436.278 261.955 417.781 291.251C405.229 311.133 392.187 333.073 376.202 350.539C367.489 360.059 358.519 337.301 355.368 332.484C319.923 278.291 274.018 229.391 245.906 170.678C238.766 155.764 233.36 139.904 239.309 123.543C246.718 103.168 266.206 94.8815 285.837 89.9491C303.72 85.4559 322.388 83.9962 340.785 84.4804C350.448 84.7347 351.028 88.5754 351.462 97.9352C352.309 116.189 351.631 134.212 342.608 150.713C327.474 178.389 301.39 202.257 273.337 216.338C247.36 229.376 213.562 238.023 184.275 234.567C157.918 231.457 169.4 194.596 175.16 178.838C189.239 140.323 231.033 98.8688 276.115 104.88C288.532 106.535 261.959 135.044 259.622 137.519" stroke="black"/>
</svg>
