<svg width="1366" height="1440" viewBox="0 0 1366 1440" fill="none" xmlns="http://www.w3.org/2000/svg">
<g clip-path="url(#clip0_182_3)">
<path d="M1366 52H0V1389H1366V52Z" fill="#71697A"/>
<path d="M272 1374H242V1398H272V1374Z" fill="#71697A"/>
<path d="M791 1374H761V1398H791V1374Z" fill="#71697A"/>
<path d="M99 1374H69V1398H99V1374Z" fill="#71697A"/>
<path d="M692.223 1345.26V1390.68L605.695 1433.7L519.167 1390.68L426.109 1436.09L346.111 1390.68L257.951 1437.29L173.056 1390.68L78.3647 1439.68L0 1390.68V1346.45L83.2625 1393.07L176.321 1348.84L257.951 1389.48L349.376 1348.84L429.374 1388.29L522.432 1348.84L602.429 1383.51L692.223 1345.26Z" fill="#FBDC33"/>
<path d="M1366 1344V1390.18L1281.75 1433.92L1197.5 1390.18L1106.89 1436.35L1029 1390.18L943.16 1437.57L860.5 1390.18L768.302 1440L692 1390.18V1345.22L773.071 1392.61L863.679 1347.65L943.16 1388.96L1032.18 1347.65L1110.07 1387.75L1200.68 1347.65L1278.57 1382.89L1366 1344Z" fill="#FBDC33"/>
<path d="M1366 1250V1296.58L1281.74 1340.71L1197.47 1296.58L1106.85 1343.16L1028.95 1296.58L943.096 1344.39L860.423 1296.58L768.21 1346.84L691.897 1296.58V1251.23L772.98 1299.03L863.602 1253.68L943.096 1295.35L1032.13 1253.68L1110.03 1294.13L1200.65 1253.68L1278.56 1289.23L1366 1250Z" fill="#FBDC33"/>
<path d="M692.222 1251.96V1297.38L605.695 1340.41L519.167 1297.38L426.109 1342.8L346.111 1297.38L257.951 1344L173.056 1297.38L78.3647 1346.39L0 1297.38V1253.16L83.2625 1299.77L176.321 1255.55L257.951 1296.19L349.376 1255.55L429.374 1294.99L522.432 1255.55L602.429 1290.21L692.222 1251.96Z" fill="#FBDC33"/>
<path d="M876 42H846V66H876V42Z" fill="#71697A"/>
<path d="M1042 40H1012V64H1042V40Z" fill="#71697A"/>
<path d="M1366 43H1336V67H1366V43Z" fill="#71697A"/>
<path d="M1213 40H1183V64H1213V40Z" fill="#71697A"/>
<path d="M30 45H0V69H30V45Z" fill="#71697A"/>
<path d="M534 41H504V65H534V41Z" fill="#71697A"/>
<path d="M186 37H156V61H186V37Z" fill="#71697A"/>
<path d="M709 45H679V69H709V45Z" fill="#71697A"/>
<path d="M367 41H337V65H367V41Z" fill="#71697A"/>
<path d="M692.223 95.2583V140.676L605.695 183.704L519.167 140.676L426.109 186.094L346.111 140.676L257.951 187.289L173.056 140.676L78.3649 189.68L0.00012207 140.676V96.4535L83.2627 143.067L176.321 98.8439L257.951 139.481L349.376 98.8439L429.374 138.286L522.432 98.8439L602.429 133.505L692.223 95.2583Z" fill="#FBDC33"/>
<path d="M1366 94V140.177L1281.75 183.924L1197.5 140.177L1106.89 186.354L1029 140.177L943.16 187.57L860.5 140.177L768.302 190L692 140.177V95.2152L773.071 142.608L863.679 97.6456L943.16 138.962L1032.18 97.6456L1110.07 137.747L1200.68 97.6456L1278.57 132.886L1366 94Z" fill="#FBDC33"/>
<path d="M1366 0V46.5806L1281.74 90.7096L1197.47 46.5806L1106.85 93.1612L1028.95 46.5806L943.096 94.387L860.423 46.5806L768.21 96.8386L691.897 46.5806V1.22582L772.98 49.0322L863.602 3.67742L943.096 45.3548L1032.13 3.67742L1110.03 44.129L1200.65 3.67742L1278.56 39.2258L1366 0Z" fill="#FBDC33"/>
<path d="M692.222 1.96484V47.3828L605.695 90.4104L519.167 47.3828L426.109 92.8008L346.111 47.3828L257.951 93.996L173.056 47.3828L78.3648 96.3864L0 47.3828V3.16007L83.2626 49.7732L176.321 5.55048L257.951 46.1876L349.376 5.55048L429.374 44.9924L522.432 5.55048L602.429 40.2116L692.222 1.96484Z" fill="#FBDC33"/>
</g>
<defs>
<clipPath id="clip0_182_3">
<rect width="1366" height="1440" fill="white"/>
</clipPath>
</defs>
</svg>
