<svg width="575" height="1146" viewBox="0 0 575 1146" fill="none" xmlns="http://www.w3.org/2000/svg">
<path d="M5.62036 1144.5H4.89868L1.5 1139.11L1.5 12.3762L5.42072 6.44635L19.1019 27.4073L20.358 29.3318L21.6141 27.4073L35.2872 6.45875L48.9603 27.4073L50.2164 29.3318L51.4725 27.4073L65.1456 6.45871L78.8186 27.4073L80.0747 29.3318L81.3308 27.4073L95.0039 6.45873L108.677 27.4073L109.933 29.3318L111.189 27.4073L124.862 6.45873L138.535 27.4073L139.792 29.3318L141.048 27.4073L154.721 6.45873L168.394 27.4073L169.646 29.3259L170.904 27.4109L183.211 8.67066C186.934 21.7762 199.142 33.1367 216.305 41.38C235.062 50.3891 260.06 55.848 287.5 55.848C326.137 55.848 359.971 45.0546 378.458 28.592L378.94 29.0083L379.891 27.6383L380.496 26.7661C385.703 21.4636 389.65 15.6935 391.566 9.63343L393.597 6.47345L407.261 27.4073L408.517 29.3318L409.773 27.4073L423.446 6.45873L437.119 27.4073L438.375 29.3318L439.631 27.4073L453.304 6.45872L466.978 27.4073L468.234 29.3318L469.49 27.4073L483.163 6.45872L496.836 27.4073L498.092 29.3318L499.348 27.4073L513.021 6.45872L526.694 27.4073L527.95 29.3318L529.207 27.4073L542.87 6.47345L556.321 27.3986L557.571 29.343L558.837 27.4094L573.5 5.02705L573.5 1144.11H572.192L558.838 1123.67L557.583 1121.75L556.327 1123.67L542.973 1144.11H542.334L528.98 1123.67L527.724 1121.75L526.469 1123.67L513.114 1144.11H512.476L499.121 1123.67L497.866 1121.75L496.61 1123.67L483.256 1144.11H482.617L469.263 1123.67L468.007 1121.75L466.752 1123.67L453.398 1144.11H452.759L439.405 1123.67L438.149 1121.75L436.893 1123.67L423.539 1144.11H422.901L409.546 1123.67L408.291 1121.75L407.035 1123.67L393.681 1144.11H393.042L379.688 1123.67L378.41 1121.72L377.164 1123.69L373.972 1128.75C354.911 1114.39 323.287 1105.21 287.5 1105.21C253.015 1105.21 222.289 1113.85 203.075 1127.44L200.767 1123.88L199.514 1121.94L198.253 1123.87L184.898 1144.3H184.26L170.906 1123.87L169.65 1121.95L168.394 1123.87L155.04 1144.3H154.401L141.047 1123.87L139.792 1121.95L138.536 1123.87L125.182 1144.3H124.543L111.189 1123.87L109.933 1121.95L108.677 1123.87L95.3232 1144.3H94.6847L81.3304 1123.87L80.0747 1121.95L78.8191 1123.87L65.4649 1144.3H64.8263L51.472 1123.87L50.2164 1121.95L48.9608 1123.87L35.6065 1144.3H34.9679L21.6136 1123.87L20.358 1121.95L19.1024 1123.87L5.62036 1144.5Z" stroke="#011638" stroke-width="3"/>
</svg>
