<svg width="1180" height="464" viewBox="0 0 1180 464" fill="none" xmlns="http://www.w3.org/2000/svg">
<rect width="1180" height="43" fill="#FBF9F7"/>
<rect x="57" y="35" width="29" height="23" fill="#FBF9F7"/>
<rect x="211" y="33" width="26" height="22" fill="#FBF9F7"/>
<rect x="366" y="39" width="14" height="13" fill="#FBF9F7"/>
<rect x="655" y="37" width="25" height="18" fill="#FBF9F7"/>
<rect x="801" y="35" width="27" height="20" fill="#FBF9F7"/>
<rect x="951" y="33" width="17" height="22" fill="#FBF9F7"/>
<path d="M597.967 95.2583V140.676L523.221 183.704L448.475 140.676L368.088 186.094L298.983 140.676L222.827 187.289L149.492 140.676L67.6945 189.68L0.000171711 140.676V96.4535L71.9253 143.067L152.312 98.8439L222.827 139.481L301.804 98.8439L370.909 138.286L451.296 98.8439L520.4 133.505L597.967 95.2583V95.2583Z" fill="#FBDC33"/>
<path d="M1180 94V140.177L1107.22 183.924L1034.44 140.177L956.173 186.354L888.887 140.177L814.736 187.57L743.331 140.177L663.687 190L597.775 140.177V95.2152L667.806 142.608L746.077 97.6456L814.736 138.962L891.634 97.6456L958.919 137.747L1037.19 97.6456L1104.48 132.886L1180 94V94Z" fill="#FBDC33"/>
<path d="M1180 0V46.5806L1107.21 90.7096L1034.42 46.5806L956.138 93.1612L888.843 46.5806L814.68 94.387L743.264 46.5806L663.608 96.8386L597.685 46.5806V1.22582L667.728 49.0322L746.011 3.67742L814.68 45.3548L891.589 3.67742L958.885 44.129L1037.17 3.67742L1104.46 39.2258L1180 0V0Z" fill="#FBDC33"/>
<path d="M597.967 1.96484V47.3828L523.221 90.4104L448.475 47.3828L368.088 92.8008L298.983 47.3828L222.827 93.996L149.492 47.3828L67.6943 96.3864L8.63424e-06 47.3828V3.16007L71.9251 49.7732L152.312 5.55048L222.827 46.1876L301.804 5.55048L370.908 44.9924L451.296 5.55048L520.4 40.2116L597.967 1.96484V1.96484Z" fill="#FBDC33"/>
<rect x="1180" y="464" width="1180" height="43" transform="rotate(-180 1180 464)" fill="#FBF9F7"/>
<rect x="1123" y="429" width="29" height="23" transform="rotate(-180 1123 429)" fill="#FBF9F7"/>
<rect x="969" y="431" width="26" height="22" transform="rotate(-180 969 431)" fill="#FBF9F7"/>
<rect x="814" y="425" width="14" height="13" transform="rotate(-180 814 425)" fill="#FBF9F7"/>
<rect x="525" y="427" width="25" height="18" transform="rotate(-180 525 427)" fill="#FBF9F7"/>
<rect x="379" y="429" width="27" height="20" transform="rotate(-180 379 429)" fill="#FBF9F7"/>
<rect x="229" y="431" width="17" height="22" transform="rotate(-180 229 431)" fill="#FBF9F7"/>
<path d="M582.033 368.742V323.324L656.779 280.296L731.525 323.324L811.912 277.906L881.017 323.324L957.173 276.711L1030.51 323.324L1112.31 274.32L1180 323.324V367.546L1108.07 320.933L1027.69 365.156L957.173 324.519L878.196 365.156L809.091 325.714L728.704 365.156L659.6 330.495L582.033 368.742V368.742Z" fill="#FBDC33"/>
<path d="M0 370L0 323.823L72.7782 280.076L145.556 323.823L223.827 277.646L291.113 323.823L365.264 276.43L436.669 323.823L516.313 274L582.225 323.823V368.785L512.194 321.392L433.923 366.354L365.264 325.038L288.366 366.354L221.081 326.253L142.81 366.354L75.5245 331.114L0 370V370Z" fill="#FBDC33"/>
<path d="M0 464L0 417.419L72.7894 373.29L145.579 417.419L223.862 370.839L291.157 417.419L365.32 369.613L436.736 417.419L516.392 367.161L582.315 417.419V462.774L512.272 414.968L433.989 460.323L365.32 418.645L288.411 460.323L221.115 419.871L142.832 460.323L75.5361 424.774L0 464V464Z" fill="#FBDC33"/>
<path d="M582.033 462.035V416.617L656.779 373.59L731.525 416.617L811.912 371.199L881.017 416.617L957.173 370.004L1030.51 416.617L1112.31 367.614L1180 416.617V460.84L1108.07 414.227L1027.69 458.45L957.173 417.812L878.196 458.45L809.092 419.008L728.704 458.45L659.6 423.788L582.033 462.035V462.035Z" fill="#FBDC33"/>
</svg>
